<svg xmlns="http://www.w3.org/2000/svg" viewBox="0 0 145 140">
  <defs><style>.a{fill:#008bd2;fill-rule:evenodd}.b{fill:#293f77;fill-rule:evenodd}.c{fill:#a1daf8;fill-rule:evenodd}</style></defs>
  <path class="a" d="M122,7.52c1.4.71-3.06-2.83-5-3.63C110.16.88,105.78-.2,98.4,0,88.3.42,79.24,4.42,71.22,10.35c-9.87,7.24-18.35,18.35-24.38,29.3-.71,1.23-2,4.12-2.83,4.9-1-.35-1.84-1.59-2.45-2.2-.87-.89-1.66-1.77-2.45-2.56-4.8-5-10.83-10.24-18.56-10.19C9.66,29.64.05,38,0,47.68c1.33-2.19,1.6-3.5,4-4.9,9.77-6,23.58,7,29.26,13.31,2.27,2.56,6,7.41,10.5,8.22,7.9,1.44,10.74-6.53,14.55-12.75l7.34-10.94C76.94,25,99.91-3.92,122,7.52Z"/>
  <path class="b" d="M121.42,63.94c-5,12.71-13.38,25.31-22.12,35-2.12,2.27-4.94,5.33-4.17,9.9a7.31,7.31,0,0,0,8.31,6.1c3.86-.33,6.25-3.66,8.11-5.84,5.74-6.65,14-17.76,17.77-24.94C132.51,78,136,71.65,138,64.28c2.14-7.71,3.76-16.22,2.58-25.28-1.28-27.92-25.23-38.76-45-26.49-5.27,3.28-10.8,9.41-12.29,13,14.38-7.79,30.72-11.49,39.3,7.19C127,42.18,125.07,54.49,121.42,63.94Z"/>
  <path class="c" d="M51.19,104c-.79.52-1.32.52-4.13.42-7.29-.3-14.65-3.85-19.81-8.53C3.91,74.66,15.18,50.56,5.6,52.71c-6,1.38-3.09,21.59-1.71,26.86,2.5,9.15,6.25,14.7,11.93,20.61C28.75,113.59,53.47,121.87,70.34,138c.79.8,1.14,1.59,2.28,1.68,2.75-6.39,3.7-21.76,1.19-28.79-3-8.18-7.92-14.35-16-17.55-3.95-1.52-8.16-2.77-12.45-4.37-3.86-1.42-8.75-7.77-10-2.33C33,97.1,49.35,102.36,51.19,104Z"/>
</svg>
